<svg width="80" height="62" viewBox="0 0 80 62" fill="none" xmlns="http://www.w3.org/2000/svg">
<path d="M20 59.0011H1.33328C0.595937 59.0011 0 59.5984 0 60.3344C0 61.0703 0.595937 61.6676 1.33328 61.6676H20C20.7373 61.6676 21.3333 61.0703 21.3333 60.3344C21.3333 59.5984 20.7373 59.0011 20 59.0011Z" fill="#D4C17F"/>
<path d="M16 56.3317C24.8226 56.3317 32 49.153 32 40.3317C32 35.9144 30.2386 31.8011 27.04 28.7491C26.5094 28.2423 25.6626 28.2623 25.1547 28.7931C24.6467 29.3264 24.6667 30.1705 25.1987 30.6784C27.8641 33.2225 29.3334 36.6491 29.3334 40.3317C29.3334 47.6837 23.352 53.665 16.0001 53.665C8.64828 53.665 2.66687 47.6836 2.66687 40.3317C2.66687 32.9784 8.64828 26.9984 16.0001 26.9984C16.7375 26.9984 17.3334 26.4011 17.3334 25.6651C17.3334 24.9278 16.7375 24.3319 16.0001 24.3319C7.1775 24.3319 0.00015259 31.5092 0.00015259 40.3319C-3.65953e-06 49.153 7.17734 56.3317 16 56.3317Z" fill="#D4C17F"/>
<path d="M22.6667 18.9983H23.3427L15.64 37.7009C14.3414 37.8783 13.3333 38.9836 13.3333 40.3316C13.3333 41.8022 14.5292 42.9983 16 42.9983C17.4706 42.9983 18.6667 41.8023 18.6667 40.3316C18.6667 39.7209 18.4534 39.1663 18.1067 38.7156L25.6308 20.4462L34.0695 32.6983C34.4855 33.305 35.3136 33.4595 35.9228 33.0409C36.5308 32.6223 36.6828 31.793 36.2642 31.1862L27.8695 18.9983H30.6669C32.8722 18.9983 34.6669 17.2036 34.6669 14.9983C34.6669 12.7916 32.8722 10.9983 30.6669 10.9983H22.6669C21.9295 10.9983 21.3336 11.5942 21.3336 12.3316V17.6648C21.3333 18.4011 21.9294 18.9983 22.6667 18.9983ZM24 13.665H30.6667C31.4027 13.665 32 14.2623 32 14.9983C32 15.733 31.4027 16.3316 30.6667 16.3316H24V13.665Z" fill="#D4C17F"/>
<path d="M62.6667 25.665C62.6667 26.4009 63.2627 26.9983 64 26.9983C71.352 26.9983 77.3333 32.9783 77.3333 40.3316C77.3333 47.6836 71.3519 53.6648 64 53.6648C56.6481 53.6648 50.6667 47.6834 50.6667 40.3316C50.6667 36.3356 52.4361 32.5848 55.5241 30.0383C56.0908 29.5703 56.172 28.7303 55.7027 28.1623C55.2347 27.5956 54.3959 27.5117 53.8253 27.9811C50.1239 31.0358 48 35.5358 48 40.3317C48 49.153 55.1773 56.3317 64 56.3317C72.8227 56.3317 80 49.153 80 40.3317C80 31.5091 72.8227 24.3317 64 24.3317C63.2627 24.3317 62.6667 24.9276 62.6667 25.665Z" fill="#D4C17F"/>
<path d="M41.3333 59.0011H28C27.2627 59.0011 26.6667 59.5984 26.6667 60.3344C26.6667 61.0703 27.2627 61.6676 28 61.6676H41.3333C42.0706 61.6676 42.6666 61.0703 42.6666 60.3344C42.6667 59.5984 42.0706 59.0011 41.3333 59.0011Z" fill="#D4C17F"/>
<path d="M41.3333 33.8544V29.665C42.0706 29.665 42.6666 29.0677 42.6666 28.3317C42.6666 27.5944 42.0706 26.9984 41.3333 26.9984H38.6666C37.9292 26.9984 37.3333 27.5944 37.3333 28.3317C37.3333 29.0677 37.9292 29.665 38.6666 29.665V33.8544C36.3719 34.4503 34.6666 36.5197 34.6666 38.9984C34.6666 41.4758 36.3719 43.5452 38.6666 44.1425V48.3319C37.9292 48.3319 37.3333 48.9278 37.3333 49.6652C37.3333 50.4011 37.9292 50.9984 38.6666 50.9984H41.3333C42.0706 50.9984 42.6666 50.4011 42.6666 49.6652C42.6666 48.9278 42.0706 48.3319 41.3333 48.3319V44.1425C43.628 43.5452 45.3333 41.4758 45.3333 38.9984C45.3333 36.5197 43.628 34.4503 41.3333 33.8544ZM40 41.665C38.5306 41.665 37.3333 40.4691 37.3333 38.9983C37.3333 37.5277 38.5306 36.3316 40 36.3316C41.4706 36.3316 42.6667 37.5275 42.6667 38.9983C42.6667 40.4691 41.4706 41.665 40 41.665Z" fill="#D4C17F"/>
<path d="M61.9453 38.6517C61.5694 39.1117 61.3333 39.6917 61.3333 40.3317C61.3333 41.8023 62.5306 42.9984 64 42.9984C65.4694 42.9984 66.6667 41.8025 66.6667 40.3317C66.6667 39.0117 65.7 37.9211 64.4414 37.7091L58.424 21.665H67.9426C69.5386 21.665 70.4667 20.3891 70.6412 19.2597L71.9733 12.593C72.0519 12.2009 71.9506 11.7944 71.6973 11.4862C71.444 11.1769 71.0667 10.9983 70.6667 10.9983H58.6667C57.9294 10.9983 57.3334 11.5942 57.3334 12.3316C57.3334 13.0675 57.9294 13.6648 58.6667 13.6648H69.04L68.0214 18.7662C68.0014 18.8583 67.944 18.9876 67.9428 18.9983H57.4242L53.2495 7.86359C53.2469 7.85827 53.2428 7.85562 53.2416 7.85031C53.2389 7.84499 53.2401 7.83968 53.2389 7.83562L50.5722 1.1689C50.2989 0.484838 49.5162 0.156868 48.8389 0.426243C48.1548 0.699525 47.8216 1.47562 48.0948 2.15952L50.5242 8.22749L45.5095 17.0034C45.1428 17.6422 45.3655 18.4567 46.0055 18.8222C46.2134 18.9408 46.4414 18.9981 46.6655 18.9981C47.1295 18.9981 47.5787 18.7569 47.8241 18.3261L51.7494 11.4581L54.9573 20.0141L44.7959 31.4447C44.3053 31.9953 44.3559 32.838 44.9066 33.3273C45.1598 33.5541 45.4759 33.6647 45.7919 33.6647C46.1586 33.6647 46.5251 33.5127 46.7878 33.2167L56.0158 22.8367L61.9453 38.6517Z" fill="#D4C17F"/>
<path d="M78.6667 59.0011H57.3333C56.5959 59.0011 56 59.5984 56 60.3344C56 61.0703 56.5959 61.6676 57.3333 61.6676H78.6666C79.4039 61.6676 79.9998 61.0703 79.9998 60.3344C80 59.5984 79.4041 59.0011 78.6667 59.0011Z" fill="#D4C17F"/>
<path d="M52 59.0011H49.3333C48.5959 59.0011 48 59.5984 48 60.3344C48 61.0703 48.5959 61.6676 49.3333 61.6676H52C52.7373 61.6676 53.3333 61.0703 53.3333 60.3344C53.3333 59.5984 52.7373 59.0011 52 59.0011Z" fill="#D4C17F"/>
</svg>
