<svg width="12" height="20" viewBox="0 0 12 20" fill="none" xmlns="http://www.w3.org/2000/svg">
<path d="M10.9995 0.00416134L8.40594 0C5.49217 0 3.60917 1.9319 3.60917 4.92203V7.19141H1.00147C0.776133 7.19141 0.593658 7.37409 0.593658 7.59943V10.8875C0.593658 11.1128 0.776341 11.2953 1.00147 11.2953H3.60917V19.5922C3.60917 19.8175 3.79164 20 4.01698 20H7.41929C7.64462 20 7.8271 19.8173 7.8271 19.5922V11.2953H10.8761C11.1014 11.2953 11.2839 11.1128 11.2839 10.8875L11.2852 7.59943C11.2852 7.49123 11.2421 7.38762 11.1657 7.31105C11.0894 7.23448 10.9853 7.19141 10.8771 7.19141H7.8271V5.26763C7.8271 4.34298 8.04744 3.87358 9.25194 3.87358L10.9991 3.87295C11.2242 3.87295 11.4067 3.69027 11.4067 3.46514V0.411972C11.4067 0.187052 11.2244 0.00457747 10.9995 0.00416134Z" fill="white"/>
</svg>
